<svg width="16" height="16" xmlns="http://www.w3.org/2000/svg">

 <g>
  <title>Layer 1</title>
  <path id="svg_1" d="m2.92781,8.36281l0,0c0,-2.72691 2.21059,-4.9375 4.9375,-4.9375l0,0c1.30951,0 2.56538,0.5202 3.49134,1.44616c0.92596,0.92596 1.44616,2.18183 1.44616,3.49134l0,0c0,2.72691 -2.21059,4.9375 -4.9375,4.9375l0,0c-2.72691,0 -4.9375,-2.21059 -4.9375,-4.9375zm2.46875,0l0,0c0,1.36345 1.1053,2.46875 2.46875,2.46875c1.36345,0 2.46875,-1.1053 2.46875,-2.46875c0,-1.36345 -1.1053,-2.46875 -2.46875,-2.46875l0,0c-1.36345,0 -2.46875,1.1053 -2.46875,2.46875z" stroke="#000" fill="#fff"/>
  <path id="svg_2" d="m32.65344,19.21969l0,0c0,-0.41145 0.33355,-0.745 0.745,-0.745l0,0c0.19759,0 0.38708,0.07849 0.52679,0.21821c0.13971,0.13971 0.21821,0.32921 0.21821,0.52679l0,0c0,0.41145 -0.33355,0.745 -0.745,0.745l0,0c-0.41145,0 -0.745,-0.33355 -0.745,-0.745zm0.3725,0l0,0c0,0.20573 0.16677,0.3725 0.3725,0.3725c0.20573,0 0.3725,-0.16677 0.3725,-0.3725c0,-0.20573 -0.16677,-0.3725 -0.3725,-0.3725l0,0c-0.20573,0 -0.3725,0.16677 -0.3725,0.3725z" stroke="#000" fill="#fff"/>
 </g>
</svg>